<svg width="60" height="60" viewBox="0 0 60 60" fill="none" xmlns="http://www.w3.org/2000/svg">
<circle cx="30" cy="30" r="30" fill="#18A0FB"/>
<mask id="mask0_31_5405" style="mask-type:alpha" maskUnits="userSpaceOnUse" x="0" y="0" width="60" height="60">
<circle cx="30" cy="30" r="30" fill="#FFF4CE"/>
</mask>
<g mask="url(#mask0_31_5405)">
<circle cx="14.7764" cy="52.7324" r="30" fill="#0089ED"/>
</g>
<path d="M18.125 21.25H18.1514M18.1514 21.25H26.375M18.1514 21.25C18.125 21.6823 18.125 22.2151 18.125 22.9003V36.1003C18.125 37.6404 18.125 38.4094 18.4247 38.9977C18.6884 39.5151 19.1088 39.9369 19.6262 40.2006C20.2139 40.5 20.9836 40.5 22.5208 40.5L26.375 40.5M18.1514 21.25C18.1843 20.7106 18.2583 20.3278 18.4247 20.0012C18.6884 19.4838 19.1088 19.0634 19.6262 18.7997C20.2145 18.5 20.9851 18.5 22.5253 18.5H38.4753C40.0154 18.5 40.7844 18.5 41.3727 18.7997C41.8901 19.0634 42.3119 19.4838 42.5756 20.0012C42.742 20.3278 42.8159 20.7106 42.8487 21.25M26.375 21.25H42.8487M26.375 21.25V40.5M42.8487 21.25H42.875M42.8487 21.25C42.875 21.6813 42.875 22.2128 42.875 22.8957L42.875 36.1042C42.875 37.6414 42.875 38.41 42.5756 38.9977C42.3119 39.5151 41.8901 39.9369 41.3727 40.2006C40.785 40.5 40.0164 40.5 38.4793 40.5H26.375" stroke="white" stroke-width="2" stroke-linecap="round" stroke-linejoin="round"/>
</svg>
