<svg width="60" height="60" viewBox="0 0 60 60" fill="none" xmlns="http://www.w3.org/2000/svg">
<circle cx="30" cy="30" r="30" fill="#18A0FB"/>
<mask id="mask0_31_5418" style="mask-type:alpha" maskUnits="userSpaceOnUse" x="0" y="0" width="60" height="60">
<circle cx="30" cy="30" r="30" fill="#FFF4CE"/>
</mask>
<g mask="url(#mask0_31_5418)">
<circle cx="14.7764" cy="52.7324" r="30" fill="#0089ED"/>
</g>
<path d="M25.375 35.375H33.625M25.375 31.25H33.625M30.8755 16.1262C30.7442 16.125 30.5964 16.125 30.4277 16.125H24.2753C22.7351 16.125 21.9645 16.125 21.3762 16.4247C20.8588 16.6884 20.4384 17.1088 20.1747 17.6262C19.875 18.2145 19.875 18.9851 19.875 20.5253V36.4753C19.875 38.0154 19.875 38.7851 20.1747 39.3733C20.4384 39.8908 20.8588 40.3119 21.3762 40.5756C21.9639 40.875 22.7336 40.875 24.2708 40.875L34.7293 40.875C36.2664 40.875 37.035 40.875 37.6227 40.5756C38.1401 40.3119 38.5619 39.8908 38.8256 39.3733C39.125 38.7857 39.125 38.0171 39.125 36.4799V24.8228C39.125 24.6542 39.1249 24.5064 39.1237 24.375M30.8755 16.1262C31.268 16.1298 31.5154 16.1443 31.7525 16.2013C32.0331 16.2686 32.302 16.3797 32.5481 16.5305C32.8255 16.7005 33.0637 16.9387 33.5391 17.4141L37.8366 21.7116C38.3122 22.1872 38.5487 22.4244 38.7188 22.7019C38.8695 22.9479 38.9811 23.2162 39.0485 23.4968C39.1054 23.734 39.1201 23.9825 39.1237 24.375M30.8755 16.1262L30.875 19.9753C30.875 21.5154 30.875 22.2852 31.1747 22.8735C31.4384 23.3909 31.8588 23.8119 32.3762 24.0756C32.9639 24.375 33.7336 24.375 35.2708 24.375H39.1237" stroke="white" stroke-width="2" stroke-linecap="round" stroke-linejoin="round"/>
</svg>
