<svg width="60" height="60" viewBox="0 0 60 60" fill="none" xmlns="http://www.w3.org/2000/svg">
<circle cx="30" cy="30" r="30" fill="#18A0FB"/>
<mask id="mask0_31_5432" style="mask-type:alpha" maskUnits="userSpaceOnUse" x="0" y="0" width="60" height="60">
<circle cx="30" cy="30" r="30" fill="#FFF4CE"/>
</mask>
<g mask="url(#mask0_31_5432)">
<circle cx="14.7764" cy="52.7324" r="30" fill="#0089ED"/>
</g>
<path fill-rule="evenodd" clip-rule="evenodd" d="M33.3907 17.969H26.6094C26.3951 19.02 25.8764 19.9848 25.118 20.7432C24.3595 21.5017 23.3948 22.0203 22.3438 22.2347V23.1826C23.3948 23.3969 24.3595 23.9156 25.118 24.674C25.8764 25.4325 26.3951 26.3972 26.6094 27.4482H33.3907C33.605 26.3972 34.1237 25.4325 34.8821 24.674C35.6406 23.9156 36.6053 23.3969 37.6563 23.1826V22.2347C36.6053 22.0203 35.6406 21.5017 34.8821 20.7432C34.1237 19.9848 33.605 19.02 33.3907 17.969ZM34.273 15.7859C33.8724 15.782 33.4456 15.7806 32.9926 15.7815H27.0076C26.5545 15.7815 26.1282 15.783 25.7286 15.7859C25.6489 15.7808 25.5689 15.7823 25.4894 15.7903C24.8303 15.802 24.2455 15.8297 23.738 15.8982C22.8221 16.0207 21.9953 16.292 21.3317 16.9555C20.6667 17.6205 20.3955 18.4474 20.273 19.3618C20.2044 19.8707 20.1767 20.4555 20.1651 21.1147C20.1571 21.1937 20.1557 21.2732 20.1607 21.3524C20.1568 21.7539 20.1553 22.1807 20.1563 22.6328V22.7845C20.1563 23.2365 20.1578 23.6633 20.1607 24.0649C20.1557 24.1441 20.1571 24.2236 20.1651 24.3026C20.1767 24.9632 20.2044 25.5465 20.273 26.054C20.3955 26.9699 20.6667 27.7968 21.3317 28.4603C21.9953 29.1253 22.8221 29.3965 23.738 29.519C24.2455 29.5876 24.8303 29.6153 25.4894 29.627C25.5689 29.635 25.6489 29.6364 25.7286 29.6313C26.1282 29.6352 26.5545 29.6367 27.0076 29.6357H32.9926C33.4446 29.6357 33.8715 29.6343 34.273 29.6313C34.3522 29.6363 34.4317 29.6349 34.5107 29.627C35.1713 29.6153 35.7561 29.5876 36.2621 29.519C37.178 29.3965 38.0049 29.1253 38.6684 28.4603C39.3334 27.7968 39.6046 26.9699 39.7271 26.054C39.795 25.4726 39.8311 24.8879 39.8351 24.3026C39.843 24.2236 39.8445 24.1441 39.8394 24.0649C39.8433 23.6633 39.8448 23.2365 39.8438 22.7845V22.6328C39.8438 22.1807 39.8424 21.7539 39.8394 21.3524C39.8445 21.2732 39.843 21.1937 39.8351 21.1147C39.8311 20.5293 39.795 19.9446 39.7271 19.3632C39.6046 18.4474 39.3334 17.6205 38.6699 16.957C38.0049 16.292 37.178 16.0207 36.2636 15.8982C35.6817 15.8303 35.0965 15.7942 34.5107 15.7903C34.4317 15.7824 34.3522 15.7809 34.273 15.7859ZM35.6788 18.0332C35.8442 18.4694 36.1002 18.8655 36.4301 19.1953C36.7599 19.5251 37.156 19.7812 37.5921 19.9465C37.5829 19.8491 37.5717 19.7519 37.5586 19.6549C37.4696 18.9811 37.3121 18.6924 37.1211 18.5028C36.9301 18.3132 36.6442 18.1572 35.9719 18.0653C35.8749 18.0526 35.7777 18.0419 35.6803 18.0332M37.5936 25.4707C37.1575 25.6361 36.7614 25.8921 36.4315 26.222C36.1017 26.5518 35.8456 26.9479 35.6803 27.384C35.7824 27.3743 35.8796 27.3636 35.9719 27.352C36.6457 27.2601 36.9344 27.104 37.124 26.9145C37.3136 26.7249 37.4711 26.4361 37.5615 25.7624C37.5732 25.67 37.5839 25.5728 37.5936 25.4707ZM24.3228 27.384C24.1574 26.9479 23.9013 26.5518 23.5715 26.222C23.2417 25.8921 22.8456 25.6361 22.4094 25.4707C22.4192 25.5728 22.4303 25.67 22.443 25.7624C22.5334 26.4361 22.6894 26.7249 22.8805 26.9145C23.0715 27.104 23.3574 27.2601 24.0296 27.352C24.123 27.3636 24.2207 27.3743 24.3228 27.384ZM22.4094 19.9465C22.8456 19.7812 23.2417 19.5251 23.5715 19.1953C23.9013 18.8655 24.1574 18.4694 24.3228 18.0332C24.2207 18.0429 24.1235 18.0541 24.0311 18.0668C23.3574 18.1572 23.0686 18.3132 22.879 18.5043C22.6894 18.6953 22.5334 18.9811 22.4415 19.6534L22.4094 19.9465ZM30.0001 22.344C29.9034 22.344 29.8106 22.3825 29.7423 22.4508C29.6739 22.5192 29.6355 22.6119 29.6355 22.7086C29.6355 22.8053 29.6739 22.8981 29.7423 22.9664C29.8106 23.0348 29.9034 23.0732 30.0001 23.0732C30.0968 23.0732 30.1895 23.0348 30.2579 22.9664C30.3262 22.8981 30.3646 22.8053 30.3646 22.7086C30.3646 22.6119 30.3262 22.5192 30.2579 22.4508C30.1895 22.3825 30.0968 22.344 30.0001 22.344ZM27.448 22.7086C27.448 22.0318 27.7169 21.3826 28.1955 20.904C28.6741 20.4254 29.3232 20.1565 30.0001 20.1565C30.6769 20.1565 31.3261 20.4254 31.8047 20.904C32.2833 21.3826 32.5521 22.0318 32.5521 22.7086C32.5521 23.3855 32.2833 24.0346 31.8047 24.5132C31.3261 24.9918 30.6769 25.2607 30.0001 25.2607C29.3232 25.2607 28.6741 24.9918 28.1955 24.5132C27.7169 24.0346 27.448 23.3855 27.448 22.7086ZM25.1642 33.5703C27.8855 33.0438 30.7978 33.162 33.1559 34.5678C33.4855 34.7647 33.7976 35.0111 34.0674 35.3145C34.6157 35.9313 34.8986 36.6955 34.9117 37.4626C35.1898 37.2818 35.4703 37.0839 35.7532 36.869L38.3899 34.8784C39.0504 34.3936 39.8484 34.1322 40.6678 34.1322C41.4871 34.1322 42.2851 34.3936 42.9457 34.8784C44.1634 35.7972 44.6505 37.4495 43.7769 38.8495C43.1571 39.8426 42.2238 41.2178 41.273 42.0986C40.3105 42.9882 38.944 43.7378 37.9101 44.2365C36.653 44.8432 35.2967 45.1786 33.9769 45.3915C31.279 45.829 28.4732 45.762 25.8074 45.2122C24.4326 44.9295 23.0328 44.7863 21.6292 44.7849H18.3334C18.0433 44.7849 17.7651 44.6696 17.56 44.4645C17.3549 44.2594 17.2396 43.9812 17.2396 43.6911C17.2396 43.401 17.3549 43.1228 17.56 42.9177C17.7651 42.7126 18.0433 42.5974 18.3334 42.5974H21.6292C23.178 42.5974 24.7428 42.7593 26.2492 43.0699C28.6791 43.5685 31.179 43.6233 33.6284 43.2318C34.8359 43.0363 35.9646 42.7461 36.9592 42.2663C37.9553 41.7851 39.0753 41.1522 39.7855 40.4945C40.5044 39.828 41.308 38.6745 41.9219 37.6915C42.1071 37.394 42.0809 36.9668 41.6274 36.624C41.0878 36.2157 40.2463 36.2157 39.7082 36.624L37.073 38.6147C36.0201 39.4095 34.7251 40.2597 33.1194 40.5163C32.9512 40.5429 32.7825 40.5663 32.6134 40.5863C32.5298 40.6009 32.4428 40.6106 32.3524 40.6155C31.4154 40.7064 30.4718 40.7064 29.5349 40.6155C29.3896 40.605 29.2479 40.5655 29.1181 40.4995C28.9883 40.4335 28.8729 40.3422 28.7789 40.231C28.6848 40.1198 28.6139 39.991 28.5703 39.852C28.5267 39.713 28.5113 39.5668 28.525 39.4218C28.5387 39.2768 28.5812 39.136 28.6501 39.0076C28.7189 38.8793 28.8127 38.766 28.9259 38.6744C29.0391 38.5828 29.1695 38.5147 29.3094 38.4741C29.4492 38.4336 29.5958 38.4214 29.7405 38.4382C30.5495 38.5165 31.3643 38.515 32.173 38.4338L32.2167 38.4295C32.3528 38.345 32.4684 38.2314 32.5553 38.0969C32.6421 37.9623 32.698 37.8102 32.7189 37.6514C32.7399 37.4927 32.7253 37.3313 32.6763 37.1788C32.6273 37.0264 32.545 36.8867 32.4355 36.7699C32.3185 36.6428 32.1834 36.5337 32.0344 36.4461C30.3121 35.418 28.0109 35.2474 25.5799 35.717C23.205 36.1937 20.9538 37.1543 18.9663 38.5388C18.8491 38.622 18.7167 38.6812 18.5766 38.7131C18.4365 38.745 18.2915 38.7491 18.1498 38.725C18.0082 38.7009 17.8727 38.6491 17.751 38.5726C17.6294 38.4961 17.524 38.3965 17.4409 38.2793C17.3578 38.162 17.2986 38.0296 17.2666 37.8895C17.2347 37.7494 17.2307 37.6044 17.2548 37.4628C17.3034 37.1767 17.4638 36.9217 17.7005 36.7538C19.9424 35.1896 22.4835 34.1058 25.1642 33.5703Z" fill="white"/>
</svg>
