<svg width="60" height="60" viewBox="0 0 60 60" fill="none" xmlns="http://www.w3.org/2000/svg">
<circle cx="30" cy="30" r="30" fill="#18A0FB"/>
<mask id="mask0_31_5445" style="mask-type:alpha" maskUnits="userSpaceOnUse" x="0" y="0" width="60" height="60">
<circle cx="30" cy="30" r="30" fill="#FFF4CE"/>
</mask>
<g mask="url(#mask0_31_5445)">
<circle cx="14.7764" cy="52.7324" r="30" fill="#0089ED"/>
</g>
<path d="M43.625 40.1659C43.625 37.626 41.1901 35.4653 37.7917 34.6645M34.875 40.166C34.875 36.9444 30.9575 34.3327 26.125 34.3327C21.2925 34.3327 17.375 36.9444 17.375 40.166M34.875 29.9577C38.0967 29.9577 40.7083 27.346 40.7083 24.1243C40.7083 20.9027 38.0967 18.291 34.875 18.291M26.125 29.9577C22.9033 29.9577 20.2917 27.346 20.2917 24.1243C20.2917 20.9027 22.9033 18.291 26.125 18.291C29.3467 18.291 31.9583 20.9027 31.9583 24.1243C31.9583 27.346 29.3467 29.9577 26.125 29.9577Z" stroke="white" stroke-width="2" stroke-linecap="round" stroke-linejoin="round"/>
</svg>
