<svg width="60" height="60" viewBox="0 0 60 60" fill="none" xmlns="http://www.w3.org/2000/svg">
<circle cx="30" cy="30" r="30" fill="#18A0FB"/>
<mask id="mask0_31_5392" style="mask-type:alpha" maskUnits="userSpaceOnUse" x="0" y="0" width="60" height="60">
<circle cx="30" cy="30" r="30" fill="#FFF4CE"/>
</mask>
<g mask="url(#mask0_31_5392)">
<circle cx="14.7764" cy="52.7324" r="30" fill="#0089ED"/>
</g>
<path d="M34.625 39.5H26.375M23.8958 35.375C22.3586 35.375 21.5889 35.375 21.0012 35.0756C20.4838 34.8119 20.0634 34.3901 19.7997 33.8727C19.6334 33.5461 19.5593 33.1639 19.5264 32.625M23.8958 35.375H37.1042M23.8958 35.375H21.6995C20.9294 35.375 20.5447 35.3745 20.2506 35.2246C19.9919 35.0928 19.7817 34.884 19.6499 34.6253C19.5 34.3312 19.5 33.9451 19.5 33.175V32.625H19.5264M19.5264 32.625C19.5 32.1931 19.5 31.6605 19.5 30.9753V21.9003C19.5 20.3601 19.5 19.5895 19.7997 19.0012C20.0634 18.4838 20.4838 18.0634 21.0012 17.7997C21.5895 17.5 22.3601 17.5 23.9003 17.5H37.1003C38.6404 17.5 39.4094 17.5 39.9977 17.7997C40.5151 18.0634 40.9369 18.4838 41.2006 19.0012C41.5 19.5889 41.5 20.3586 41.5 21.8958V30.9792C41.5 31.6625 41.5 32.1938 41.4737 32.625M19.5264 32.625H41.4737M41.4737 32.625C41.4408 33.1639 41.3669 33.5462 41.2006 33.8727C40.9369 34.3901 40.5151 34.8119 39.9977 35.0756C39.41 35.375 38.6414 35.375 37.1042 35.375M41.4737 32.625H41.5V33.175C41.5 33.9451 41.4995 34.3312 41.3496 34.6253C41.2178 34.884 41.0082 35.0928 40.7495 35.2246C40.4554 35.3745 40.0695 35.375 39.2995 35.375H37.1042" stroke="white" stroke-width="2" stroke-linecap="round" stroke-linejoin="round"/>
</svg>
