<svg width="60" height="60" viewBox="0 0 60 60" fill="none" xmlns="http://www.w3.org/2000/svg">
<circle cx="30" cy="30" r="30" fill="#18A0FB"/>
<mask id="mask0_31_5459" style="mask-type:alpha" maskUnits="userSpaceOnUse" x="0" y="0" width="60" height="60">
<circle cx="30" cy="30" r="30" fill="#FFF4CE"/>
</mask>
<g mask="url(#mask0_31_5459)">
<circle cx="14.7764" cy="52.7324" r="30" fill="#0089ED"/>
</g>
<path d="M17.375 33.8747V36.4993C17.375 38.1328 17.375 38.949 17.6929 39.5729C17.9725 40.1217 18.4184 40.5688 18.9672 40.8484C19.5905 41.166 20.4069 41.166 22.0372 41.166H43.6253M17.375 33.8747V19.291M17.375 33.8747L22.9945 29.1917L22.9992 29.188C24.0158 28.3409 24.525 27.9165 25.0773 27.7441C25.7296 27.5404 26.4323 27.5727 27.0635 27.8345C27.5986 28.0565 28.0679 28.5257 29.0063 29.4642L29.0157 29.4736C29.9687 30.4266 30.4465 30.9044 30.9902 31.1259C31.6336 31.388 32.3499 31.4106 33.0094 31.1918C33.5684 31.0064 34.079 30.5604 35.1 29.667L43.625 22.2077" stroke="white" stroke-width="2" stroke-linecap="round" stroke-linejoin="round"/>
</svg>
